# xmcd
#
# Track frame offsets:
#	150
#	14562
#	28950
#	42177
#	54537
#	68485
#	82080
#	97060
#	110772
#	125700
#	139343
#	153207
#	165270
#	180080
#	191948
#	205940
#
# Disc length: 2983 seconds
#
# Revision: 1
# Processed by: cddbd v1.5.2PL0 Copyright (c) Steve Scherf et al.
# Submitted via: audiograbber 1.83.01
#
DISCID=e10ba510
DTITLE=King, Ricky - Kult-Schlagerparty
DYEAR=1998
DGENRE=Pop
TTITLE0=Anita
TTITLE1=Hale, hey Louise
TTITLE2=Summer party
TTITLE3=Mendocino
TTITLE4=Viva Ibiza
TTITLE5=Tränen lügen nicht
TTITLE6=Sternenfeuer
TTITLE7=Fiesta mexicana
TTITLE8=Straße der Sehnsucht
TTITLE9=Mykonos goodbye
TTITLE10=Ganz in weiss
TTITLE11=Magic guitar
TTITLE12=Feuer der Nacht
TTITLE13=Ein Bett im Kornfeld
TTITLE14=Silberner Stern
TTITLE15=Schlagerhits im Guitar Sound (Medley)
EXTD=
EXTT0=
EXTT1=
EXTT2=
EXTT3=
EXTT4=
EXTT5=
EXTT6=
EXTT7=
EXTT8=
EXTT9=
EXTT10=
EXTT11=
EXTT12=
EXTT13=
EXTT14=
EXTT15=
PLAYORDER=
